<?xml version="1.0" encoding="UTF-8" standalone="no"?>
<svg
   xmlns:dc="http://purl.org/dc/elements/1.1/"
   xmlns:cc="http://creativecommons.org/ns#"
   xmlns:rdf="http://www.w3.org/1999/02/22-rdf-syntax-ns#"
   xmlns:svg="http://www.w3.org/2000/svg"
   xmlns="http://www.w3.org/2000/svg"
   xmlns:xlink="http://www.w3.org/1999/xlink"
   xmlns:sodipodi="http://sodipodi.sourceforge.net/DTD/sodipodi-0.dtd"
   xmlns:inkscape="http://www.inkscape.org/namespaces/inkscape"
   version="1.1"
   inkscape:output_extension="org.inkscape.output.svg.inkscape"
   sodipodi:docname="SubShapeBinderRelink.svg"
   inkscape:version="1.0beta2 (c8d5c0e, 2020-01-08)"
   sodipodi:version="0.32"
   id="svg3052"
   height="64px"
   width="64px">
  <defs
     id="defs3054">
    <linearGradient
       inkscape:collect="always"
       id="linearGradient4235">
      <stop
         style="stop-color:#4e9a06;stop-opacity:1"
         offset="0"
         id="stop4237" />
      <stop
         style="stop-color:#73d216;stop-opacity:1"
         offset="1"
         id="stop4239" />
    </linearGradient>
    <linearGradient
       id="linearGradient4189">
      <stop
         style="stop-color:#204a87;stop-opacity:1"
         offset="0"
         id="stop4191" />
      <stop
         style="stop-color:#729fcf;stop-opacity:1"
         offset="1"
         id="stop4193" />
    </linearGradient>
    <linearGradient
       id="linearGradient4032">
      <stop
         id="stop4034"
         offset="0"
         style="stop-color:#71b2f8;stop-opacity:1;" />
      <stop
         id="stop4036"
         offset="1"
         style="stop-color:#002795;stop-opacity:1;" />
    </linearGradient>
    <inkscape:perspective
       id="perspective3060"
       inkscape:persp3d-origin="32 : 21.333333 : 1"
       inkscape:vp_z="64 : 32 : 1"
       inkscape:vp_y="0 : 1000 : 0"
       inkscape:vp_x="0 : 32 : 1"
       sodipodi:type="inkscape:persp3d" />
    <radialGradient
       gradientTransform="matrix(1.6244669,-0.05136783,0.04345521,0.9993132,-102.99033,7.7040438)"
       r="19.467436"
       fy="81.869568"
       fx="148.88333"
       cy="81.869568"
       cx="148.88333"
       gradientUnits="userSpaceOnUse"
       id="radialGradient3705"
       xlink:href="#linearGradient3377"
       inkscape:collect="always" />
    <linearGradient
       id="linearGradient3377">
      <stop
         style="stop-color:#4bff54;stop-opacity:1;"
         offset="0"
         id="stop3379" />
      <stop
         style="stop-color:#00b800;stop-opacity:1;"
         offset="1"
         id="stop3381" />
    </linearGradient>
    <radialGradient
       gradientTransform="matrix(0.87904684,0.2250379,-0.41709097,2.0016728,56.73751,-127.99883)"
       r="19.467436"
       fy="97.369568"
       fx="135.38333"
       cy="97.369568"
       cx="135.38333"
       gradientUnits="userSpaceOnUse"
       id="radialGradient3703"
       xlink:href="#linearGradient3206"
       inkscape:collect="always" />
    <linearGradient
       id="linearGradient3199">
      <stop
         style="stop-color:#faff2b;stop-opacity:1;"
         offset="0"
         id="stop3201" />
      <stop
         style="stop-color:#ffaa00;stop-opacity:1;"
         offset="1"
         id="stop3203" />
    </linearGradient>
    <radialGradient
       gradientUnits="userSpaceOnUse"
       r="19.467436"
       fy="28.869568"
       fx="45.883327"
       cy="28.869568"
       cx="45.883327"
       id="radialGradient3692"
       xlink:href="#linearGradient3377"
       inkscape:collect="always" />
    <linearGradient
       id="linearGradient3206">
      <stop
         style="stop-color:#faff2b;stop-opacity:1;"
         offset="0"
         id="stop3208" />
      <stop
         style="stop-color:#ffaa00;stop-opacity:1;"
         offset="1"
         id="stop3210" />
    </linearGradient>
    <radialGradient
       r="19.467436"
       fy="81.869568"
       fx="148.88333"
       cy="81.869568"
       cx="148.88333"
       gradientTransform="matrix(1.260164,-0.05136783,0.03370995,0.9993132,-43.139781,7.2044077)"
       gradientUnits="userSpaceOnUse"
       id="radialGradient4030"
       xlink:href="#linearGradient4032"
       inkscape:collect="always" />
    <radialGradient
       gradientUnits="userSpaceOnUse"
       gradientTransform="matrix(0.97729927,0,0,0.96923885,0.7054002,1.1269478)"
       r="30.506065"
       fy="41.607136"
       fx="35.436966"
       cy="41.607136"
       cx="35.436966"
       id="radialGradient4187-6"
       xlink:href="#linearGradient4189-7"
       inkscape:collect="always" />
    <linearGradient
       id="linearGradient4189-7">
      <stop
         style="stop-color:#064d9a;stop-opacity:1"
         offset="0"
         id="stop4191-5" />
      <stop
         style="stop-color:#7499ff;stop-opacity:1"
         offset="1"
         id="stop4193-3" />
    </linearGradient>
    <linearGradient
       gradientTransform="matrix(0.76342439,0,0,0.75750425,-4.596389,2.7525637)"
       y2="5"
       x2="-22"
       y1="18"
       x1="-18"
       gradientUnits="userSpaceOnUse"
       id="linearGradient3801-1-3-14-0-9"
       xlink:href="#linearGradient3836-0-6-92-4-2"
       inkscape:collect="always" />
    <linearGradient
       id="linearGradient3836-0-6-92-4-2">
      <stop
         id="stop3838-2-7-06-8-0"
         offset="0"
         style="stop-color:#a40000;stop-opacity:1" />
      <stop
         id="stop3840-5-5-8-7-23"
         offset="1"
         style="stop-color:#ef2929;stop-opacity:1" />
    </linearGradient>
    <linearGradient
       gradientTransform="matrix(0.76342439,0,0,0.75750425,-4.596389,2.7525637)"
       y2="5"
       x2="-22"
       y1="18"
       x1="-18"
       gradientUnits="userSpaceOnUse"
       id="linearGradient3801-1-3-14-0-9-6"
       xlink:href="#linearGradient3836-0-6-92-4-2-2"
       inkscape:collect="always" />
    <linearGradient
       id="linearGradient3836-0-6-92-4-2-2">
      <stop
         id="stop3838-2-7-06-8-0-9"
         offset="0"
         style="stop-color:#a40000;stop-opacity:1" />
      <stop
         id="stop3840-5-5-8-7-23-1"
         offset="1"
         style="stop-color:#ef2929;stop-opacity:1" />
    </linearGradient>
    <linearGradient
       gradientTransform="matrix(0.76342439,0,0,0.75750425,-4.596389,2.7525637)"
       y2="5"
       x2="-22"
       y1="18"
       x1="-18"
       gradientUnits="userSpaceOnUse"
       id="linearGradient3801-1-3-14-0-9-3"
       xlink:href="#linearGradient3836-0-6-92-4-2-6"
       inkscape:collect="always" />
    <linearGradient
       id="linearGradient3836-0-6-92-4-2-6">
      <stop
         id="stop3838-2-7-06-8-0-0"
         offset="0"
         style="stop-color:#a40000;stop-opacity:1" />
      <stop
         id="stop3840-5-5-8-7-23-6"
         offset="1"
         style="stop-color:#ef2929;stop-opacity:1" />
    </linearGradient>
    <radialGradient
       gradientUnits="userSpaceOnUse"
       gradientTransform="matrix(-0.0020822,-0.88986142,0.51400049,-0.00120273,15.974446,72.866213)"
       r="29.997898"
       fy="42.682178"
       fx="38.686348"
       cy="42.682178"
       cx="38.686348"
       id="radialGradient4207"
       xlink:href="#linearGradient4235"
       inkscape:collect="always" />
    <linearGradient
       xlink:href="#linearGradient3895-9"
       id="linearGradient5137"
       gradientUnits="userSpaceOnUse"
       gradientTransform="matrix(-0.0710797,0,0,0.06845086,119.47976,10.490655)"
       x1="288.11227"
       y1="358.15811"
       x2="372.52457"
       y2="7.5416322" />
    <linearGradient
       id="linearGradient3774">
      <stop
         style="stop-color:#4e9a06;stop-opacity:1"
         offset="0"
         id="stop3776" />
      <stop
         style="stop-color:#8ae234;stop-opacity:1"
         offset="1"
         id="stop3778" />
    </linearGradient>
    <linearGradient
       id="linearGradient3895-9">
      <stop
         style="stop-color:#729fcf;stop-opacity:1;"
         offset="0"
         id="stop3897-1" />
      <stop
         style="stop-color:#204a87;stop-opacity:1;"
         offset="1"
         id="stop3899-2" />
    </linearGradient>
  </defs>
  <sodipodi:namedview
     inkscape:document-rotation="0"
     inkscape:snap-nodes="false"
     inkscape:snap-bbox="true"
     inkscape:window-maximized="1"
     inkscape:window-y="-7"
     inkscape:window-x="-7"
     inkscape:window-height="1010"
     inkscape:window-width="1920"
     inkscape:grid-bbox="true"
     inkscape:document-units="px"
     showgrid="true"
     inkscape:current-layer="layer1"
     inkscape:cy="34.183255"
     inkscape:cx="56.401008"
     inkscape:zoom="8.7173008"
     inkscape:pageshadow="2"
     inkscape:pageopacity="0.0"
     borderopacity="1.0"
     bordercolor="#666666"
     pagecolor="#ffffff"
     id="base">
    <inkscape:grid
       snapvisiblegridlinesonly="true"
       enabled="true"
       visible="true"
       empspacing="2"
       id="grid3049"
       type="xygrid" />
  </sodipodi:namedview>
  <metadata
     id="metadata3057">
    <rdf:RDF>
      <cc:Work
         rdf:about="">
        <dc:format>image/svg+xml</dc:format>
        <dc:type
           rdf:resource="http://purl.org/dc/dcmitype/StillImage" />
        <dc:title />
        <dc:creator>
          <cc:Agent>
            <dc:title>[Stefan Tröger]</dc:title>
          </cc:Agent>
        </dc:creator>
        <dc:title>PartDesign_ShapeBinder</dc:title>
        <dc:date>2015-07-18</dc:date>
        <dc:relation>http://www.freecadweb.org/wiki/index.php?title=Artwork</dc:relation>
        <dc:publisher>
          <cc:Agent>
            <dc:title>FreeCAD</dc:title>
          </cc:Agent>
        </dc:publisher>
        <dc:identifier>FreeCAD/src/Mod/PartDesign/Gui/Resources/icons/PartDesign_ShapeBinder.svg</dc:identifier>
        <dc:rights>
          <cc:Agent>
            <dc:title>FreeCAD LGPL2+</dc:title>
          </cc:Agent>
        </dc:rights>
        <cc:license>https://www.gnu.org/copyleft/lesser.html</cc:license>
        <dc:contributor>
          <cc:Agent>
            <dc:title>[agryson] Alexander Gryson</dc:title>
          </cc:Agent>
        </dc:contributor>
      </cc:Work>
    </rdf:RDF>
  </metadata>
  <g
     inkscape:groupmode="layer"
     inkscape:label="Layer 1"
     id="layer1">
    <path
       sodipodi:nodetypes="csssssssssc"
       inkscape:connector-curvature="0"
       id="path4179"
       d="M 6.2324977,28.949884 C 2.9580054,39.23663 2.101676,40.120446 3.9830209,47.201562 c 1.881345,7.081118 10.2451931,3.905362 19.6519171,8.930672 9.406724,5.025307 14.815591,6.281633 23.164058,3.197922 8.348469,-3.083711 -3.174769,-12.791692 -0.587919,-21.47177 2.586849,-8.680077 9.921607,-8.332895 13.122786,-14.551618 2.05003,-3.982465 3.075046,-7.964932 -2.18747,-15.6002322 C 50.311735,-2.2097629 35.758504,6.3812885 33.21804,7.9349589 30.149296,9.8117091 28.926219,11.361306 22.341514,8.1633821 15.756808,4.9654586 6.5852498,3.7091317 5.4094092,10.104978 4.2335688,16.500825 6.2324977,28.949884 6.2324977,28.949884 z"
       style="fill:url(#radialGradient4207);fill-opacity:1;fill-rule:evenodd;stroke:#172a04;stroke-width:2;stroke-linecap:butt;stroke-linejoin:miter;stroke-miterlimit:4;stroke-opacity:1;stroke-dasharray:none" />
    <path
       sodipodi:nodetypes="csssssssssc"
       inkscape:connector-curvature="0"
       id="path4179-5"
       d="M 8.2389949,29.389667 C 5.1903301,38.966984 3.9342003,40.93699 5.6857972,46.15318 7.857291,52.619807 14.191996,48.986207 22.94998,53.664943 31.707962,58.343678 39.55517,60.935682 44.860657,57.101178 50.419821,53.083331 42.3094,47.479285 44.427998,37.569076 46.278012,28.915228 53.493284,28.090145 57.391406,23.160657 59.978088,19.889591 59.394023,13.565459 55.985726,8.9804476 49.29631,-0.01848865 34.809728,9.4996057 32.331033,10.741762 29.416569,12.202296 27.704272,12.842022 22.204613,10.380859 15.983779,7.5969611 7.5349896,5.4307975 7.1285281,11.385552 6.7162141,17.426046 8.2389949,29.389667 8.2389949,29.389667 z"
       style="fill:none;stroke:#73d216;stroke-width:1.99999976;stroke-linecap:butt;stroke-linejoin:miter;stroke-miterlimit:4;stroke-opacity:1;stroke-dasharray:none" />
    <g
       id="g3827-1-3-92-1-7"
       transform="matrix(0.5613787,1.5641823e-8,0,0.56576972,41.28696,26.558916)">
      <g
         id="g3797-9-5-66-7-5"
         transform="translate(31.322131,40.570289)">
        <path
           d="M -26.118221,5.6643347 A 8.9379793,8.8680774 0 1 1 -12.540634,17.200906 8.9379793,8.8680774 0 1 1 -26.118221,5.6643347 z"
           id="path4250-71-6-49-2-9"
           style="fill:#ef2929;stroke:#280000;stroke-width:3.54880524;stroke-miterlimit:4;stroke-opacity:1;stroke-dasharray:none"
           inkscape:connector-curvature="0" />
        <path
           d="m -23.40227,7.9744858 a 5.3439706,5.3025298 0 1 1 8.11794,6.8981452 5.3439706,5.3025298 0 0 1 -8.11794,-6.8981452 z"
           id="path4250-7-3-2-5-7-2"
           style="fill:url(#linearGradient3801-1-3-14-0-9);fill-opacity:1;stroke:#ef2929;stroke-width:3.54880428;stroke-miterlimit:4;stroke-opacity:1;stroke-dasharray:none"
           inkscape:connector-curvature="0" />
      </g>
    </g>
    <g
       id="g3827-1-3-92-1-7-2"
       transform="matrix(0.5613787,1.5641823e-8,0,0.56576972,1.2869604,-1.4410835)">
      <g
         id="g3797-9-5-66-7-5-7"
         transform="translate(31.322131,40.570289)">
        <path
           d="M -26.118221,5.6643347 A 8.9379793,8.8680774 0 1 1 -12.540634,17.200906 8.9379793,8.8680774 0 1 1 -26.118221,5.6643347 z"
           id="path4250-71-6-49-2-9-0"
           style="fill:#ef2929;stroke:#280000;stroke-width:3.54880524;stroke-miterlimit:4;stroke-opacity:1;stroke-dasharray:none"
           inkscape:connector-curvature="0" />
        <path
           d="m -23.40227,7.9744858 a 5.3439706,5.3025298 0 1 1 8.11794,6.8981452 5.3439706,5.3025298 0 0 1 -8.11794,-6.8981452 z"
           id="path4250-7-3-2-5-7-2-9"
           style="fill:url(#linearGradient3801-1-3-14-0-9-6);fill-opacity:1;stroke:#ef2929;stroke-width:3.54880428;stroke-miterlimit:4;stroke-opacity:1;stroke-dasharray:none"
           inkscape:connector-curvature="0" />
      </g>
    </g>
    <g
       id="g3827-1-3-92-1-7-26"
       transform="matrix(0.5613787,1.5641823e-8,0,0.56576972,49.248143,-21.40226)">
      <g
         id="g3797-9-5-66-7-5-1"
         transform="translate(31.322131,40.570289)">
        <path
           d="M -26.118221,5.6643347 A 8.9379793,8.8680774 0 1 1 -12.540634,17.200906 8.9379793,8.8680774 0 1 1 -26.118221,5.6643347 z"
           id="path4250-71-6-49-2-9-8"
           style="fill:#ef2929;stroke:#280000;stroke-width:3.54880524;stroke-miterlimit:4;stroke-opacity:1;stroke-dasharray:none"
           inkscape:connector-curvature="0" />
        <path
           d="m -23.40227,7.9744858 a 5.3439706,5.3025298 0 1 1 8.11794,6.8981452 5.3439706,5.3025298 0 0 1 -8.11794,-6.8981452 z"
           id="path4250-7-3-2-5-7-2-7"
           style="fill:url(#linearGradient3801-1-3-14-0-9-3);fill-opacity:1;stroke:#ef2929;stroke-width:3.54880428;stroke-miterlimit:4;stroke-opacity:1;stroke-dasharray:none"
           inkscape:connector-curvature="0" />
      </g>
    </g>
    <g
       transform="translate(-65.960785,0.68828645)"
       id="g938">
      <path
         inkscape:connector-curvature="0"
         id="path4228"
         d="m 86.543201,23.066859 c 2.543363,-2.514542 6.595411,-3.953999 12.156034,-4.31885 v -5.120266 c 0,-0.547187 0.263915,-0.931469 0.791555,-1.153117 0.55463,-0.2211 1.02824,-0.130191 1.42051,0.273738 l 10.39003,10.006007 c 0.25714,0.24787 0.38552,0.540894 0.38552,0.879577 0,0.338779 -0.12843,0.631747 -0.38552,0.879399 l -10.39032,10.005945 c -0.24393,0.247583 -0.54802,0.371348 -0.913345,0.371348 -0.162297,0 -0.331324,-0.03258 -0.507245,-0.09768 -0.527612,-0.221649 -0.791746,-0.605594 -0.791746,-1.153054 v -4.905403 c -2.178021,0.169423 -3.987362,0.511403 -5.428788,1.026007 -1.440784,0.514685 -2.593975,1.234455 -3.459955,2.159568 -2.015956,2.149706 -2.733072,5.830024 -2.151293,11.041896 0.02671,0.338888 -0.128428,0.560318 -0.466783,0.664508 -0.04058,0.01327 -0.101413,0.01942 -0.182596,0.01942 -0.270536,0 -0.459739,-0.110729 -0.56821,-0.332186 l -0.405804,-0.781701 c -0.189203,-0.364891 -0.463131,-0.95455 -0.821676,-1.768825 -0.358298,-0.814644 -0.683507,-1.628728 -0.974424,-2.443167 -0.290931,-0.814084 -0.551222,-1.713043 -0.78131,-2.696701 -0.229869,-0.984041 -0.344961,-1.853564 -0.344961,-2.609062 0,-4.377695 1.143615,-7.693245 3.430327,-9.947401 z"
         style="fill:#729fcf;fill-opacity:1;stroke:#172a04;stroke-width:1.99999;stroke-miterlimit:4;stroke-dasharray:none;stroke-opacity:1" />
      <path
         inkscape:connector-curvature="0"
         style="fill:url(#linearGradient5137);fill-opacity:1;stroke:none;stroke-width:4.75378;stroke-miterlimit:4;stroke-dasharray:none;stroke-opacity:1"
         d="m 101.19043,16.351773 c 2.5229,2.429558 5.08341,4.814359 7.56513,7.293925 -2.61133,2.46307 -5.13523,5.031602 -7.766,7.471049 -0.002,-1.678956 -0.0119,-3.357981 0.004,-5.036896 -3.617494,0.224453 -7.382277,0.489011 -10.644671,2.356869 -2.326667,1.310454 -3.896823,3.804109 -4.724435,6.440993 -0.488915,-2.95416 -0.176413,-6.202 1.450892,-8.707939 1.508384,-2.311866 4.040093,-3.51906 6.514995,-4.150151 2.022235,-0.591997 4.13862,-0.548882 6.172837,-1.05677 1.072292,-0.601613 1.425132,-2.042 1.260842,-3.261204 -0.009,-0.51868 -0.0395,-1.044021 -0.0591,-1.56634 0.0751,0.07216 0.15015,0.14431 0.22522,0.216464 z"
         id="path5135" />
    </g>
  </g>
</svg>
